<svg width="200" height="200" viewBox="0 0 200 200" xmlns="http://www.w3.org/2000/svg">
  <defs>
    <linearGradient id="gradient1" x1="0%" y1="0%" x2="100%" y2="100%">
      <stop offset="0%" style="stop-color:#3b82f6;stop-opacity:1" />
      <stop offset="100%" style="stop-color:#8b5cf6;stop-opacity:1" />
    </linearGradient>
    <linearGradient id="gradient2" x1="0%" y1="0%" x2="100%" y2="100%">
      <stop offset="0%" style="stop-color:#06b6d4;stop-opacity:1" />
      <stop offset="100%" style="stop-color:#3b82f6;stop-opacity:1" />
    </linearGradient>
  </defs>

  <!-- Transformation symbol - abstract molt/metamorphosis -->
  <g transform="translate(100, 100)">
    <!-- Left side - old form (hexagon) -->
    <path d="M -50,-30 L -30,-40 L -10,-30 L -10,-10 L -30,0 L -50,-10 Z"
          fill="url(#gradient2)"
          opacity="0.6"/>

    <!-- Flow/transformation curves -->
    <path d="M -20,-20 Q 0,-10 20,0"
          stroke="url(#gradient1)"
          stroke-width="8"
          fill="none"
          stroke-linecap="round"
          opacity="0.8"/>
    <path d="M -20,0 Q 0,10 20,20"
          stroke="url(#gradient1)"
          stroke-width="8"
          fill="none"
          stroke-linecap="round"
          opacity="0.8"/>
    <path d="M -20,20 Q 0,30 20,40"
          stroke="url(#gradient1)"
          stroke-width="8"
          fill="none"
          stroke-linecap="round"
          opacity="0.6"/>

    <!-- Right side - new form (dynamic shape) -->
    <path d="M 30,-20 L 55,-15 L 65,5 L 50,25 L 25,20 L 20,0 Z"
          fill="url(#gradient1)"/>

    <!-- Accent dots representing data points -->
    <circle cx="-30" cy="-20" r="3" fill="#3b82f6" opacity="0.8"/>
    <circle cx="40" cy="5" r="3" fill="#8b5cf6"/>
    <circle cx="0" cy="0" r="4" fill="#06b6d4"/>
  </g>
</svg>
