<svg width="1200" height="630" viewBox="0 0 1200 630" xmlns="http://www.w3.org/2000/svg">
  <defs>
    <linearGradient id="bgGradient" x1="0%" y1="0%" x2="100%" y2="100%">
      <stop offset="0%" style="stop-color:#0f172a;stop-opacity:1" />
      <stop offset="100%" style="stop-color:#1e293b;stop-opacity:1" />
    </linearGradient>
    <linearGradient id="logoGradient1" x1="0%" y1="0%" x2="100%" y2="100%">
      <stop offset="0%" style="stop-color:#3b82f6;stop-opacity:1" />
      <stop offset="100%" style="stop-color:#8b5cf6;stop-opacity:1" />
    </linearGradient>
    <linearGradient id="logoGradient2" x1="0%" y1="0%" x2="100%" y2="100%">
      <stop offset="0%" style="stop-color:#06b6d4;stop-opacity:1" />
      <stop offset="100%" style="stop-color:#3b82f6;stop-opacity:1" />
    </linearGradient>
  </defs>

  <!-- Background -->
  <rect width="1200" height="630" fill="url(#bgGradient)"/>

  <!-- Subtle grid pattern -->
  <g opacity="0.05">
    <line x1="0" y1="157.5" x2="1200" y2="157.5" stroke="#fff" stroke-width="1"/>
    <line x1="0" y1="315" x2="1200" y2="315" stroke="#fff" stroke-width="1"/>
    <line x1="0" y1="472.5" x2="1200" y2="472.5" stroke="#fff" stroke-width="1"/>
    <line x1="300" y1="0" x2="300" y2="630" stroke="#fff" stroke-width="1"/>
    <line x1="600" y1="0" x2="600" y2="630" stroke="#fff" stroke-width="1"/>
    <line x1="900" y1="0" x2="900" y2="630" stroke="#fff" stroke-width="1"/>
  </g>

  <!-- Logo (scaled up) -->
  <g transform="translate(200, 315) scale(1.8)">
    <path d="M -50,-30 L -30,-40 L -10,-30 L -10,-10 L -30,0 L -50,-10 Z"
          fill="url(#logoGradient2)"
          opacity="0.6"/>
    <path d="M -20,-20 Q 0,-10 20,0"
          stroke="url(#logoGradient1)"
          stroke-width="8"
          fill="none"
          stroke-linecap="round"
          opacity="0.8"/>
    <path d="M -20,0 Q 0,10 20,20"
          stroke="url(#logoGradient1)"
          stroke-width="8"
          fill="none"
          stroke-linecap="round"
          opacity="0.8"/>
    <path d="M -20,20 Q 0,30 20,40"
          stroke="url(#logoGradient1)"
          stroke-width="8"
          fill="none"
          stroke-linecap="round"
          opacity="0.6"/>
    <path d="M 30,-20 L 55,-15 L 65,5 L 50,25 L 25,20 L 20,0 Z"
          fill="url(#logoGradient1)"/>
    <circle cx="-30" cy="-20" r="3" fill="#3b82f6" opacity="0.8"/>
    <circle cx="40" cy="5" r="3" fill="#8b5cf6"/>
    <circle cx="0" cy="0" r="4" fill="#06b6d4"/>
  </g>

  <!-- Title -->
  <text x="440" y="280" font-family="system-ui, -apple-system, sans-serif" font-size="96" font-weight="700" fill="#fff">
    Molt
  </text>

  <!-- Tagline -->
  <text x="440" y="340" font-family="system-ui, -apple-system, sans-serif" font-size="36" font-weight="400" fill="#94a3b8">
    High-Performance Data Transformation
  </text>

  <!-- Features -->
  <g transform="translate(440, 390)">
    <text y="0" font-family="system-ui, -apple-system, sans-serif" font-size="24" font-weight="500" fill="#3b82f6">
      ⚡ 415x Faster YAML
    </text>
    <text y="40" font-family="system-ui, -apple-system, sans-serif" font-size="24" font-weight="500" fill="#8b5cf6">
      🔧 Type Preservation
    </text>
    <text y="80" font-family="system-ui, -apple-system, sans-serif" font-size="24" font-weight="500" fill="#06b6d4">
      🧹 Dirty Input Support
    </text>
  </g>
</svg>
